<svg width="19" height="19" viewBox="0 0 19 19" fill="none" xmlns="http://www.w3.org/2000/svg">
<g clip-path="url(#clip0_1_238)">
<path d="M9.5 0.296875C4.41602 0.296875 0.296875 4.41602 0.296875 9.5C0.296875 14.584 4.41602 18.7031 9.5 18.7031C14.584 18.7031 18.7031 14.584 18.7031 9.5C18.7031 4.41602 14.584 0.296875 9.5 0.296875ZM11.6189 13.2889L8.3459 10.9102C8.23086 10.8248 8.16406 10.6912 8.16406 10.5502V4.30469C8.16406 4.05977 8.36445 3.85938 8.60938 3.85938H10.3906C10.6355 3.85938 10.8359 4.05977 10.8359 4.30469V9.41465L13.1924 11.1291C13.3928 11.2738 13.4336 11.5521 13.2889 11.7525L12.2424 13.1924C12.0977 13.3891 11.8193 13.4336 11.6189 13.2889Z" fill="#9BA5B0"/>
</g>
<defs>
<clipPath id="clip0_1_238">
<rect width="19" height="19" fill="white"/>
</clipPath>
</defs>
</svg>
