<svg width="20" height="16" viewBox="0 0 20 16" fill="none" xmlns="http://www.w3.org/2000/svg">
<path d="M17.633 3.99753C17.646 4.17253 17.646 4.34653 17.646 4.52053C17.646 9.84553 13.593 15.9815 6.186 15.9815C3.904 15.9815 1.784 15.3205 0 14.1725C0.324 14.2095 0.636 14.2225 0.973 14.2225C2.856 14.2225 4.589 13.5865 5.974 12.5015C4.203 12.4645 2.719 11.3045 2.207 9.70853C2.456 9.74553 2.706 9.77053 2.968 9.77053C3.329 9.77053 3.692 9.72053 4.029 9.63353C2.182 9.25953 0.799 7.63853 0.799 5.68053V5.63053C1.336 5.92953 1.959 6.11653 2.619 6.14153C1.534 5.41953 0.823 4.18453 0.823 2.78753C0.823 2.03953 1.022 1.35353 1.371 0.755531C3.354 3.19853 6.335 4.79553 9.677 4.97053C9.615 4.67053 9.577 4.35953 9.577 4.04753C9.577 1.82753 11.373 0.0195312 13.605 0.0195312C14.765 0.0195312 15.812 0.505531 16.548 1.29153C17.458 1.11653 18.33 0.779531 19.104 0.318531C18.805 1.25353 18.168 2.03953 17.333 2.53853C18.144 2.45053 18.93 2.22653 19.652 1.91453C19.104 2.71253 18.419 3.42353 17.633 3.99753Z" fill="white"/>
</svg>
