<svg width="126" height="127" viewBox="0 0 126 127" fill="none" xmlns="http://www.w3.org/2000/svg">
<g filter="url(#filter0_b_1_194)">
<rect x="13" y="11" width="100" height="100" rx="50" fill="white" fill-opacity="0.05"/>
<rect x="13.3415" y="11.3415" width="99.3171" height="99.3171" rx="49.6585" stroke="white" stroke-opacity="0.15" stroke-width="0.682927"/>
</g>
<g filter="url(#filter1_bd_1_194)">
<rect x="20" y="18" width="85.7143" height="85.7143" rx="42.8571" fill="white" fill-opacity="0.05" shape-rendering="crispEdges"/>
<path d="M41.4691 86.2922C43.0314 86.2922 43.6864 85.5505 43.6864 84.7456C43.6864 83.9724 43.1656 83.4911 42.1083 83.3017L40.8221 83.0808C40.1988 82.9466 39.9305 82.7967 39.9305 82.3391C39.9305 81.8656 40.3093 81.6289 41.2719 81.6289C42.3687 81.6289 42.7553 81.9524 42.7553 82.5994V82.702H43.5996V82.6547C43.5996 81.621 42.8973 80.8478 41.3508 80.8478C39.7096 80.8478 39.0784 81.621 39.0784 82.3864C39.0784 83.2544 39.7096 83.6647 40.6012 83.8225L41.8952 84.0355C42.5659 84.1617 42.8342 84.3353 42.8342 84.793C42.8342 85.2901 42.4791 85.511 41.4691 85.511C40.3093 85.511 39.9384 85.1954 39.9384 84.5642V84.4379H39.0862V84.4853C39.0862 85.5978 39.8911 86.2922 41.4691 86.2922ZM45.538 86.2133V83.9329H48.6468V86.2133H49.4911V80.9267H48.6468V83.1676H45.538V80.9267H44.6858V86.2133H45.538ZM53.2782 86.2922C54.951 86.2922 56.0398 85.2191 56.0398 83.57C56.0398 81.9209 54.951 80.8478 53.2782 80.8478C51.6212 80.8478 50.5244 81.9209 50.5244 83.57C50.5244 85.2191 51.6212 86.2922 53.2782 86.2922ZM53.2782 85.4716C52.0236 85.4716 51.4239 84.8877 51.4239 83.57C51.4239 82.2523 52.0236 81.6605 53.2782 81.6605C54.5328 81.6605 55.1403 82.2523 55.1403 83.57C55.1403 84.8877 54.5328 85.4716 53.2782 85.4716ZM59.4311 86.2133L60.4331 83.136L60.8119 81.7788H60.8829L61.2695 83.136L62.3347 86.2133H63.5893L64.9149 80.9267H63.9838L63.1948 84.2722L62.9738 85.3927H62.9107L62.6109 84.2722L61.4747 80.9267H60.2359L59.1707 84.2722L58.8866 85.3927H58.8235L58.5868 84.2722L57.7267 80.9267H56.7799L58.1765 86.2133H59.4311ZM66.6634 86.2133V84.1617H67.6339C68.2967 84.1617 68.5413 84.3353 68.778 84.7535L69.6223 86.2133H70.6007L69.7169 84.6825C69.5276 84.3511 69.3382 84.1144 68.9279 84.0039V83.9487C69.9221 83.8935 70.4981 83.3569 70.4981 82.4811C70.4981 81.4948 69.7564 80.9267 68.5571 80.9267H65.8112V86.2133H66.6634ZM66.6634 81.6921H68.5492C69.2593 81.6921 69.6144 81.9524 69.6144 82.5994C69.6144 83.2622 69.2593 83.5068 68.5492 83.5068H66.6634V81.6921ZM75.7363 86.2133V85.4479H72.3592V83.9329H75.618V83.1754H72.3592V81.6921H75.7363V80.9267H71.5071V86.2133H75.7363ZM81.0238 86.2133V85.4479H77.6467V83.9329H80.9055V83.1754H77.6467V81.6921H81.0238V80.9267H76.7946V86.2133H81.0238ZM86.193 86.2133V85.4479H82.9342V80.9267H82.0821V86.2133H86.193Z" fill="white"/>
<path fill-rule="evenodd" clip-rule="evenodd" d="M71.9267 53.5696L54.4473 64.6929V42.4463L71.9267 53.5696ZM65.9994 53.5696L57.6251 48.2304V58.9087L65.9994 53.5696Z" fill="white"/>
<rect x="20.3288" y="18.3288" width="85.0568" height="85.0568" rx="42.5284" stroke="white" stroke-opacity="0.15" stroke-width="0.657534" shape-rendering="crispEdges"/>
</g>
<defs>
<filter id="filter0_b_1_194" x="-7.4878" y="-9.4878" width="140.976" height="140.976" filterUnits="userSpaceOnUse" color-interpolation-filters="sRGB">
<feFlood flood-opacity="0" result="BackgroundImageFix"/>
<feGaussianBlur in="BackgroundImageFix" stdDeviation="10.2439"/>
<feComposite in2="SourceAlpha" operator="in" result="effect1_backgroundBlur_1_194"/>
<feBlend mode="normal" in="SourceGraphic" in2="effect1_backgroundBlur_1_194" result="shape"/>
</filter>
<filter id="filter1_bd_1_194" x="0.273973" y="-1.72603" width="125.166" height="127.796" filterUnits="userSpaceOnUse" color-interpolation-filters="sRGB">
<feFlood flood-opacity="0" result="BackgroundImageFix"/>
<feGaussianBlur in="BackgroundImageFix" stdDeviation="9.86301"/>
<feComposite in2="SourceAlpha" operator="in" result="effect1_backgroundBlur_1_194"/>
<feColorMatrix in="SourceAlpha" type="matrix" values="0 0 0 0 0 0 0 0 0 0 0 0 0 0 0 0 0 0 127 0" result="hardAlpha"/>
<feOffset dy="2.63014"/>
<feGaussianBlur stdDeviation="9.86301"/>
<feComposite in2="hardAlpha" operator="out"/>
<feColorMatrix type="matrix" values="0 0 0 0 0 0 0 0 0 0 0 0 0 0 0 0 0 0 0.1 0"/>
<feBlend mode="normal" in2="effect1_backgroundBlur_1_194" result="effect2_dropShadow_1_194"/>
<feBlend mode="normal" in="SourceGraphic" in2="effect2_dropShadow_1_194" result="shape"/>
</filter>
</defs>
</svg>
